<?xml version="1.0" encoding="UTF-8" standalone="no"?>
<svg
   xmlns:dc="http://purl.org/dc/elements/1.1/"
   xmlns:cc="http://creativecommons.org/ns#"
   xmlns:rdf="http://www.w3.org/1999/02/22-rdf-syntax-ns#"
   xmlns:svg="http://www.w3.org/2000/svg"
   xmlns="http://www.w3.org/2000/svg"
   xmlns:sodipodi="http://sodipodi.sourceforge.net/DTD/sodipodi-0.dtd"
   xmlns:inkscape="http://www.inkscape.org/namespaces/inkscape"
   version="1.1"
   x="0px"
   y="0px"
   viewBox="0 0 24 30"
   style="enable-background:new 0 0 24 24;"
   xml:space="preserve"
   id="svg18"
   sodipodi:docname="icon.svg"
   inkscape:version="0.92.2 5c3e80d, 2017-08-06"><metadata
     id="metadata24"><rdf:RDF><cc:Work
         rdf:about=""><dc:format>image/svg+xml</dc:format><dc:type
           rdf:resource="http://purl.org/dc/dcmitype/StillImage" /><dc:title></dc:title></cc:Work></rdf:RDF></metadata><defs
     id="defs22"><inkscape:perspective
       sodipodi:type="inkscape:persp3d"
       inkscape:vp_x="0 : 15 : 1"
       inkscape:vp_y="0 : 1000 : 0"
       inkscape:vp_z="24 : 15 : 1"
       inkscape:persp3d-origin="12 : 10 : 1"
       id="perspective26" /></defs><sodipodi:namedview
     pagecolor="#ffffff"
     bordercolor="#666666"
     borderopacity="1"
     objecttolerance="10"
     gridtolerance="10"
     guidetolerance="10"
     inkscape:pageopacity="0"
     inkscape:pageshadow="2"
     inkscape:window-width="819"
     inkscape:window-height="645"
     id="namedview20"
     showgrid="false"
     inkscape:zoom="7.8666667"
     inkscape:cx="12"
     inkscape:cy="15"
     inkscape:window-x="184"
     inkscape:window-y="46"
     inkscape:window-maximized="0"
     inkscape:current-layer="svg18" /><g
     id="g12"><path
       d="M15.5,13c0.276,0,0.5-0.224,0.5-0.5S15.776,12,15.5,12h-7C8.224,12,8,12.224,8,12.5v7C8,19.776,8.224,20,8.5,20h3   c0.276,0,0.5-0.224,0.5-0.5S11.776,19,11.5,19H9v-6H15.5z"
       id="path2" /><path
       d="M14,23H4V11.5C4,11.224,3.776,11,3.5,11H1.707L11.5,1.207c0.264-0.264,0.734-0.265,0.999,0l3.647,3.647   c0.144,0.143,0.358,0.187,0.545,0.108C16.878,4.885,17,4.702,17,4.5V1h3v7.5c0,0.133,0.052,0.26,0.146,0.354L22.292,11h-1.793   c-0.276,0-0.5,0.224-0.5,0.5V12c0,0.276,0.224,0.5,0.5,0.5s0.5-0.224,0.5-0.5h2.5c0.202,0,0.385-0.122,0.462-0.309   c0.078-0.187,0.035-0.402-0.108-0.545l-2.854-2.854V0.5c0-0.276-0.224-0.5-0.5-0.5h-4c-0.276,0-0.5,0.224-0.5,0.5v2.793L13.206,0.5   c-0.643-0.644-1.767-0.645-2.413,0L0.146,11.146c-0.143,0.143-0.186,0.358-0.108,0.545C0.115,11.878,0.298,12,0.5,12H3v11.5   C3,23.776,3.224,24,3.5,24H14c0.276,0,0.5-0.224,0.5-0.5S14.276,23,14,23z"
       id="path4" /><path
       d="M18.5,13c-3.033,0-5.5,2.467-5.5,5.5s2.467,5.5,5.5,5.5s5.5-2.467,5.5-5.5S21.533,13,18.5,13z M18.5,23   c-2.481,0-4.5-2.019-4.5-4.5s2.019-4.5,4.5-4.5s4.5,2.019,4.5,4.5S20.981,23,18.5,23z"
       id="path6" /><path
       d="M18.14,21.151C18.05,21.24,18,21.37,18,21.5s0.05,0.26,0.15,0.35c0.09,0.1,0.22,0.15,0.35,0.15s0.26-0.05,0.35-0.15   c0.1-0.09,0.15-0.22,0.15-0.35s-0.05-0.26-0.15-0.35C18.66,20.961,18.33,20.961,18.14,21.151z"
       id="path8" /><path
       d="M18.5,15c-1.334,0-2.408,0.8-2.497,1.862c-0.023,0.275,0.181,0.517,0.456,0.54c0.273,0.034,0.517-0.181,0.54-0.456   c0.043-0.522,0.717-0.946,1.5-0.946C19.312,16,20,16.458,20,17c0,0.488-0.474,0.802-1.491,0.99L18.4,18.011   c-0.232,0.048-0.399,0.252-0.399,0.489L18,19.5c0,0.275,0.223,0.5,0.5,0.5c0.276,0,0.5-0.223,0.5-0.5l0.002-0.592   c1.327-0.312,1.999-0.953,1.999-1.908C21.001,15.897,19.879,15,18.5,15z"
       id="path10" /></g></svg>